<svg width="548" height="194" viewBox="0 0 548 194" fill="none" xmlns="http://www.w3.org/2000/svg">
<rect width="548" height="194" fill="#F5F5F5"/>
<g clip-path="url(#clip0_0_1)">
<path d="M83.402 4.268L4.11399 86.524C-1.49601 92.344 -1.49601 101.656 4.11399 107.476L83.402 189.732C89.012 195.552 97.988 195.552 103.598 189.732L182.886 107.476C188.496 101.656 188.496 92.344 182.886 86.524L103.598 4.268C97.988 -1.358 89.012 -1.358 83.402 4.268Z" fill="#474198"/>
<path d="M7.10598 71.198L49.929 178.48C52.921 186.046 61.336 189.732 68.629 186.434L172.04 142.008C179.333 138.904 182.886 130.174 179.707 122.608L137.071 15.326C134.079 7.76 125.664 4.074 118.371 7.372L14.773 51.798C7.47998 54.902 4.11398 63.632 7.10598 71.198Z" fill="#8D8DFF"/>
<path d="M23.188 38.994V155.2C23.188 163.348 29.546 169.944 37.4 169.944H149.413C157.267 169.944 163.625 163.348 163.625 155.2V38.994C163.625 30.846 157.267 24.25 149.413 24.25H37.587C29.546 24.056 23.188 30.652 23.188 38.994Z" fill="#6356E5"/>
<path d="M135.575 73.526L126.973 64.602C125.664 63.244 123.607 63.244 122.298 64.602L80.223 108.252L64.515 91.956C63.206 90.598 61.149 90.598 59.84 91.956L51.425 100.88C50.116 102.238 50.116 104.372 51.425 105.73L69.377 124.354L77.979 133.278C79.288 134.636 81.345 134.636 82.654 133.278L135.575 78.376C136.884 77.018 136.884 74.884 135.575 73.526Z" fill="white"/>
</g>
<path d="M208.975 77.15V71H245.2V77.15H230.35V122H223.825V77.15H208.975ZM276.027 122.375C273.727 122.375 271.877 121.85 270.477 120.8C269.127 119.75 268.177 118.45 267.627 116.9C265.177 119.05 262.952 120.575 260.952 121.475C258.952 122.325 256.952 122.75 254.952 122.75C251.702 122.75 249.302 121.7 247.752 119.6C246.202 117.5 245.427 114.925 245.427 111.875C245.427 109.825 245.802 108 246.552 106.4C247.302 104.8 248.577 103.55 250.377 102.65C252.177 101.7 254.602 101.225 257.652 101.225C259.002 101.225 260.477 101.325 262.077 101.525C263.677 101.675 265.302 101.875 266.952 102.125V97.1C266.952 94.3 266.327 92.4 265.077 91.4C263.877 90.35 262.102 89.825 259.752 89.825C256.552 89.825 252.977 90.7 249.027 92.45L247.077 87.35C249.377 86.3 251.577 85.5 253.677 84.95C255.777 84.4 257.902 84.125 260.052 84.125C263.552 84.125 266.227 84.7 268.077 85.85C269.927 87 271.202 88.525 271.902 90.425C272.602 92.325 272.952 94.4 272.952 96.65V112.7C272.952 113.85 273.177 114.825 273.627 115.625C274.077 116.375 274.977 116.75 276.327 116.75H277.152V122.375H276.027ZM251.502 111.8C251.502 113.5 251.902 114.875 252.702 115.925C253.502 116.975 254.652 117.5 256.152 117.5C257.452 117.5 258.952 117.125 260.652 116.375C262.352 115.575 264.452 114 266.952 111.65V106.925C263.552 106.375 260.552 106.1 257.952 106.1C255.652 106.1 254.002 106.575 253.002 107.525C252.002 108.475 251.502 109.9 251.502 111.8ZM294.94 117.275C299.94 117.275 302.44 115.575 302.44 112.175C302.44 110.725 301.99 109.575 301.09 108.725C300.19 107.875 298.54 107.15 296.14 106.55L292.015 105.5C288.965 104.75 286.69 103.45 285.19 101.6C283.69 99.7 282.94 97.45 282.94 94.85C282.94 92.95 283.365 91.2 284.215 89.6C285.065 87.95 286.415 86.625 288.265 85.625C290.115 84.625 292.515 84.125 295.465 84.125C297.365 84.125 299.29 84.35 301.24 84.8C303.24 85.2 305.265 85.9 307.315 86.9L305.365 92.075C301.715 90.425 298.415 89.6 295.465 89.6C291.115 89.6 288.94 91.225 288.94 94.475C288.94 95.725 289.34 96.8 290.14 97.7C290.94 98.6 292.44 99.325 294.64 99.875L298.765 100.925C302.065 101.725 304.49 103.025 306.04 104.825C307.59 106.625 308.365 108.95 308.365 111.8C308.365 113.85 307.915 115.725 307.015 117.425C306.165 119.075 304.765 120.375 302.815 121.325C300.915 122.275 298.34 122.75 295.09 122.75C292.94 122.75 290.79 122.525 288.64 122.075C286.54 121.625 284.365 120.9 282.115 119.9L283.765 114.8C285.915 115.65 287.865 116.275 289.615 116.675C291.365 117.075 293.14 117.275 294.94 117.275ZM341.039 122L330.614 104.825C329.664 105.775 328.664 106.75 327.614 107.75C326.564 108.75 325.464 109.75 324.314 110.75V122H318.164V66.5H324.314V103.85C327.564 100.7 330.439 97.625 332.939 94.625C335.489 91.625 337.814 88.375 339.914 84.875H346.964C345.164 87.875 343.314 90.65 341.414 93.2C339.564 95.7 337.464 98.25 335.114 100.85L348.464 122H341.039ZM382.65 100.55H364.125V122H357.6V71H384.9V77.15H364.125V94.4H382.65V100.55ZM394.115 113V66.5H400.265V112.7C400.265 114.05 400.465 115.075 400.865 115.775C401.315 116.425 402.19 116.75 403.49 116.75H404.69V122.375H402.965C399.665 122.375 397.365 121.5 396.065 119.75C394.765 118 394.115 115.75 394.115 113ZM443.365 101.15V105.65C443.365 110.95 441.99 115.125 439.24 118.175C436.54 121.225 432.665 122.75 427.615 122.75C422.615 122.75 418.74 121.225 415.99 118.175C413.24 115.125 411.865 110.95 411.865 105.65V101.15C411.865 95.95 413.215 91.825 415.915 88.775C418.665 85.675 422.565 84.125 427.615 84.125C432.665 84.125 436.54 85.675 439.24 88.775C441.99 91.825 443.365 95.95 443.365 101.15ZM436.99 101.15C436.99 97.6 436.19 94.825 434.59 92.825C432.99 90.775 430.665 89.75 427.615 89.75C424.615 89.75 422.29 90.775 420.64 92.825C419.04 94.825 418.24 97.6 418.24 101.15V105.65C418.24 109.35 419.04 112.2 420.64 114.2C422.29 116.2 424.615 117.2 427.615 117.2C430.665 117.2 432.99 116.2 434.59 114.2C436.19 112.2 436.99 109.35 436.99 105.65V101.15ZM499.023 84.875L489.498 122H482.373L474.573 91.55L466.548 122H459.423L449.973 84.875H456.273L460.023 100.4L463.398 115.775L471.423 84.875H477.948L485.973 115.925L489.273 100.475L492.948 84.875H499.023Z" fill="#3A29A6"/>
<defs>
<clipPath id="clip0_0_1">
<rect width="187" height="194" fill="white"/>
</clipPath>
</defs>
</svg>
