<svg width="501" height="195" viewBox="0 0 501 195" fill="none" xmlns="http://www.w3.org/2000/svg">
<path d="M84.402 4.268L5.11399 86.524C-0.496006 92.344 -0.496006 101.656 5.11399 107.476L84.402 189.732C90.012 195.552 98.988 195.552 104.598 189.732L183.886 107.476C189.496 101.656 189.496 92.344 183.886 86.524L104.598 4.268C98.988 -1.358 90.012 -1.358 84.402 4.268Z" fill="#474198"/>
<path d="M8.106 71.198L50.929 178.48C53.921 186.046 62.336 189.732 69.629 186.434L173.04 142.008C180.333 138.904 183.886 130.174 180.707 122.608L138.071 15.326C135.079 7.76 126.664 4.074 119.371 7.372L15.773 51.798C8.48001 54.902 5.114 63.632 8.106 71.198Z" fill="#8D8DFF"/>
<path d="M24.188 38.994V155.2C24.188 163.348 30.546 169.944 38.4 169.944H150.413C158.267 169.944 164.625 163.348 164.625 155.2V38.994C164.625 30.846 158.267 24.25 150.413 24.25H38.587C30.546 24.056 24.188 30.652 24.188 38.994Z" fill="#6356E5"/>
<path d="M136.575 73.526L127.973 64.602C126.664 63.244 124.607 63.244 123.298 64.602L81.223 108.252L65.515 91.956C64.206 90.598 62.149 90.598 60.84 91.956L52.425 100.88C51.116 102.238 51.116 104.372 52.425 105.73L78.979 133.278C80.288 134.636 82.345 134.636 83.654 133.278L136.575 78.376C137.884 77.018 137.884 74.884 136.575 73.526Z" fill="white"/>
<path d="M209.975 77.15V71H246.2V77.15H231.35V122H224.825V77.15H209.975Z" fill="#3A29A6"/>
<path d="M277.027 122.375C274.727 122.375 272.877 121.85 271.477 120.8C270.127 119.75 269.177 118.45 268.627 116.9C266.177 119.05 263.952 120.575 261.952 121.475C259.952 122.325 257.952 122.75 255.952 122.75C252.702 122.75 250.302 121.7 248.752 119.6C247.202 117.5 246.427 114.925 246.427 111.875C246.427 109.825 246.802 108 247.552 106.4C248.302 104.8 249.577 103.55 251.377 102.65C253.177 101.7 255.602 101.225 258.652 101.225C260.002 101.225 261.477 101.325 263.077 101.525C264.677 101.675 266.302 101.875 267.952 102.125V97.1C267.952 94.3 267.327 92.4 266.077 91.4C264.877 90.35 263.102 89.825 260.752 89.825C257.552 89.825 253.977 90.7 250.027 92.45L248.077 87.35C250.377 86.3 252.577 85.5 254.677 84.95C256.777 84.4 258.902 84.125 261.052 84.125C264.552 84.125 267.227 84.7 269.077 85.85C270.927 87 272.202 88.525 272.902 90.425C273.602 92.325 273.952 94.4 273.952 96.65V112.7C273.952 113.85 274.177 114.825 274.627 115.625C275.077 116.375 275.977 116.75 277.327 116.75H278.152V122.375H277.027ZM252.502 111.8C252.502 113.5 252.902 114.875 253.702 115.925C254.502 116.975 255.652 117.5 257.152 117.5C258.452 117.5 259.952 117.125 261.652 116.375C263.352 115.575 265.452 114 267.952 111.65V106.925C264.552 106.375 261.552 106.1 258.952 106.1C256.652 106.1 255.002 106.575 254.002 107.525C253.002 108.475 252.502 109.9 252.502 111.8Z" fill="#3A29A6"/>
<path d="M295.94 117.275C300.94 117.275 303.44 115.575 303.44 112.175C303.44 110.725 302.99 109.575 302.09 108.725C301.19 107.875 299.54 107.15 297.14 106.55L293.015 105.5C289.965 104.75 287.69 103.45 286.19 101.6C284.69 99.7 283.94 97.45 283.94 94.85C283.94 92.95 284.365 91.2 285.215 89.6C286.065 87.95 287.415 86.625 289.265 85.625C291.115 84.625 293.515 84.125 296.465 84.125C298.365 84.125 300.29 84.35 302.24 84.8C304.24 85.2 306.265 85.9 308.315 86.9L306.365 92.075C302.715 90.425 299.415 89.6 296.465 89.6C292.115 89.6 289.94 91.225 289.94 94.475C289.94 95.725 290.34 96.8 291.14 97.7C291.94 98.6 293.44 99.325 295.64 99.875L299.765 100.925C303.065 101.725 305.49 103.025 307.04 104.825C308.59 106.625 309.365 108.95 309.365 111.8C309.365 113.85 308.915 115.725 308.015 117.425C307.165 119.075 305.765 120.375 303.815 121.325C301.915 122.275 299.34 122.75 296.09 122.75C293.94 122.75 291.79 122.525 289.64 122.075C287.54 121.625 285.365 120.9 283.115 119.9L284.765 114.8C286.915 115.65 288.865 116.275 290.615 116.675C292.365 117.075 294.14 117.275 295.94 117.275Z" fill="#3A29A6"/>
<path d="M342.039 122L331.614 104.825C330.664 105.775 329.664 106.75 328.614 107.75C327.564 108.75 326.464 109.75 325.314 110.75V122H319.164V66.5H325.314V103.85C328.564 100.7 331.439 97.625 333.939 94.625C336.489 91.625 338.814 88.375 340.914 84.875H347.964C346.164 87.875 344.314 90.65 342.414 93.2C340.564 95.7 338.464 98.25 336.114 100.85L349.464 122H342.039Z" fill="#3A29A6"/>
<path d="M383.65 100.55H365.125V122H358.6V71H385.9V77.15H365.125V94.4H383.65V100.55Z" fill="#3A29A6"/>
<path d="M395.115 113V66.5H401.265V112.7C401.265 114.05 401.465 115.075 401.865 115.775C402.315 116.425 403.19 116.75 404.49 116.75H405.69V122.375H403.965C400.665 122.375 398.365 121.5 397.065 119.75C395.765 118 395.115 115.75 395.115 113Z" fill="#3A29A6"/>
<path d="M444.365 101.15V105.65C444.365 110.95 442.99 115.125 440.24 118.175C437.54 121.225 433.665 122.75 428.615 122.75C423.615 122.75 419.74 121.225 416.99 118.175C414.24 115.125 412.865 110.95 412.865 105.65V101.15C412.865 95.95 414.215 91.825 416.915 88.775C419.665 85.675 423.565 84.125 428.615 84.125C433.665 84.125 437.54 85.675 440.24 88.775C442.99 91.825 444.365 95.95 444.365 101.15ZM437.99 101.15C437.99 97.6 437.19 94.825 435.59 92.825C433.99 90.775 431.665 89.75 428.615 89.75C425.615 89.75 423.29 90.775 421.64 92.825C420.04 94.825 419.24 97.6 419.24 101.15V105.65C419.24 109.35 420.04 112.2 421.64 114.2C423.29 116.2 425.615 117.2 428.615 117.2C431.665 117.2 433.99 116.2 435.59 114.2C437.19 112.2 437.99 109.35 437.99 105.65V101.15Z" fill="#3A29A6"/>
<path d="M500.023 84.875L490.498 122H483.373L475.573 91.55L467.548 122H460.423L450.974 84.875H457.273L461.023 100.4L464.398 115.775L472.423 84.875H478.948L486.974 115.925L490.273 100.475L493.948 84.875H500.023Z" fill="#3A29A6"/>
</svg>
